<?xml version="1.0" encoding="utf-8"?>
<!-- Generator: Adobe Illustrator 24.3.0, SVG Export Plug-In . SVG Version: 6.00 Build 0)  -->
<svg version="1.1" id="Logo" xmlns="http://www.w3.org/2000/svg" xmlns:xlink="http://www.w3.org/1999/xlink" x="0px" y="0px"
	 viewBox="0 0 61.95 61.95" style="enable-background:new 0 0 61.95 61.95;" xml:space="preserve">
<style type="text/css">
	.st0{fill:#EC1D24;}
</style>
<path class="st0" d="M30.98,0C13.87,0,0,13.87,0,30.98c0,17.1,13.87,30.98,30.98,30.98s30.98-13.87,30.98-30.98
	C61.95,13.87,48.08,0,30.98,0z M24.25,9.3c0,0.34-0.27,0.62-0.62,0.63c-3.89,0.2-7.29,2.29-9.3,5.36c-0.62,0.94-1.1,1.98-1.43,3.08
	c-0.32,1.07-0.49,2.2-0.49,3.37s0.17,2.3,0.49,3.37c0.33,1.1,0.81,2.14,1.43,3.08c2,3.08,5.4,5.16,9.3,5.36
	c0.34,0.02,0.62,0.29,0.62,0.63v1.2c0,0.36-0.3,0.66-0.66,0.65c-4.34-0.2-8.19-2.34-10.68-5.59c-0.55-0.7-1.02-1.46-1.42-2.26
	c-0.99-1.94-1.54-4.14-1.54-6.46c0-2.32,0.55-4.52,1.54-6.46c0.41-0.8,0.89-1.55,1.43-2.26c2.49-3.24,6.34-5.38,10.68-5.58
	c0.36-0.02,0.66,0.28,0.66,0.65V9.3z M29.39,53.86c0,0.36-0.29,0.65-0.65,0.65h-1.26c-0.36,0-0.65-0.29-0.65-0.65V10.2V8.09
	c0-0.36,0.29-0.65,0.65-0.65h1.26c0.36,0,0.65,0.29,0.65,0.65V53.86z M34.54,53.86c0,0.36-0.29,0.65-0.65,0.65h-1.26
	c-0.36,0-0.65-0.29-0.65-0.65V8.09c0-0.36,0.29-0.65,0.65-0.65h1.26c0.36,0,0.65,0.29,0.65,0.65V53.86z M48.31,31.5
	c0.54,0.7,1.02,1.46,1.43,2.26c0.05,0.09,0.09,0.19,0.14,0.28c0.9,1.87,1.4,3.96,1.4,6.18c0,2.32-0.55,4.52-1.54,6.45
	c-0.4,0.8-0.88,1.55-1.42,2.26c-2.49,3.24-6.33,5.38-10.68,5.59c-0.36,0.02-0.66-0.28-0.66-0.65v-1.19c0-0.35,0.27-0.62,0.62-0.63
	c3.89-0.2,7.29-2.29,9.3-5.36c0.61-0.94,1.1-1.98,1.42-3.08c0.32-1.07,0.49-2.2,0.49-3.37c0-0.64-0.05-1.26-0.15-1.86
	c-0.08-0.52-0.2-1.02-0.34-1.51c-0.33-1.1-0.81-2.14-1.42-3.08c-0.23-0.36-0.48-0.7-0.75-1.02c-2.32,1.95-5.28,3.17-8.5,3.31
	c-0.36,0.02-0.66-0.28-0.66-0.65v-1.2c0-0.34,0.27-0.61,0.62-0.63c2.56-0.13,4.9-1.08,6.77-2.59c-1.87-1.51-4.22-2.45-6.77-2.59
	c-0.35-0.02-0.62-0.29-0.62-0.63v-1.2c0-0.36,0.3-0.67,0.66-0.65c3.23,0.14,6.18,1.37,8.5,3.31c0.27-0.33,0.52-0.67,0.75-1.02
	c0.61-0.94,1.1-1.98,1.42-3.08c0.15-0.49,0.26-1,0.35-1.52c0.09-0.6,0.14-1.23,0.14-1.86c0-1.17-0.17-2.3-0.49-3.37
	c-0.33-1.1-0.81-2.14-1.42-3.08c-2.01-3.08-5.41-5.16-9.3-5.36c-0.35-0.02-0.62-0.29-0.62-0.63V8.11c0-0.37,0.3-0.67,0.66-0.65
	c4.35,0.2,8.19,2.35,10.68,5.59c0.54,0.7,1.02,1.46,1.43,2.25c0.99,1.95,1.54,4.14,1.54,6.46c0,2.21-0.5,4.3-1.4,6.17
	c-0.05,0.1-0.1,0.19-0.14,0.29c-0.4,0.8-0.88,1.55-1.42,2.26c-0.13,0.18-0.27,0.35-0.42,0.52C48.03,31.15,48.17,31.32,48.31,31.5z"
	/>
</svg>
